<svg width="200" height="200" viewBox="0 0 200 200" fill="none" xmlns="http://www.w3.org/2000/svg">
<path fill-rule="evenodd" clip-rule="evenodd" d="M171.457 97.3351C177.461 99.0532 181.951 104.042 181.998 110.514L181.998 110.524L181.998 110.533C181.999 110.56 181.999 110.587 181.999 110.614V121.158L181.999 121.169C182 121.192 182 121.215 182 121.238C181.999 127.749 177.496 132.789 171.457 134.517V158.421C171.456 165.911 165.408 172 157.985 172H31.4711C24.048 172 18 165.911 18 158.421L18 52.1799C18.0017 44.6913 24.0491 38.604 31.4711 38.604H72.8463H94.0386L114.504 28.2925C115.905 27.5882 117.735 28.2056 118.432 29.612L122.893 38.604H157.985C165.408 38.604 171.456 44.693 171.456 52.1831C171.456 59.5792 171.456 66.9751 171.456 74.371C171.457 82.0257 171.457 89.6804 171.457 97.3351ZM168.54 102.945C172.642 102.997 176.136 106.419 176.141 110.605L176.141 121.239C176.137 125.338 172.583 128.891 168.502 128.906L136.9 128.907C135.285 128.907 133.971 130.225 133.971 131.862C133.971 133.498 135.286 134.817 136.9 134.817H165.599V158.421C165.599 162.646 162.188 166.09 157.985 166.09H31.4711C27.2675 166.09 23.857 162.646 23.857 158.421V63.5061C26.2811 64.7579 28.6787 65.7622 31.4711 65.7622H157.985C162.188 65.7622 165.599 69.2058 165.599 73.431V97.0348H136.9C135.285 97.0348 133.971 98.3535 133.971 99.9899C133.971 100.767 134.266 101.471 134.751 101.998C135.288 102.583 136.051 102.945 136.899 102.945L168.54 102.945ZM157.985 44.5142C162.188 44.5142 165.599 47.9578 165.599 52.1831V62.107C163.175 60.8555 160.778 59.8519 157.986 59.8519H133.436L125.826 44.5142H157.985ZM114.505 34.8989L126.886 59.8519H64.8895L114.505 34.8989ZM51.8663 59.8519H31.4721C27.1879 59.8519 24.0992 56.4016 24.0894 52.1855C24.0794 47.952 27.1777 44.5142 31.4711 44.5142H82.308L51.8663 59.8519Z" fill="#A3E2E3"/>
<path d="M147.468 119.395H147.363C145.512 119.393 143.921 117.779 143.921 115.925C143.919 114.063 145.496 112.458 147.363 112.456H147.468C149.335 112.458 150.912 114.064 150.91 115.925C150.91 117.789 149.329 119.393 147.468 119.395Z" fill="#A3E2E3"/>
</svg>
