<svg width="200" height="200" viewBox="0 0 200 200" fill="none" xmlns="http://www.w3.org/2000/svg">
<path d="M176.502 113.143C176.631 112.812 176.697 112.462 176.697 112.109C178.84 108.488 180 104.469 180 100.304C180 93.5315 177.049 87.1649 171.827 82.514C172.681 80.0652 173.115 77.5026 173.112 74.9238C173.112 66.1067 168.159 58.1379 160.051 53.691C159.512 44.3336 152.935 36.2871 143.452 33.2057C143.253 33.02 143.031 32.8586 142.789 32.7253C139.047 24.0827 129.844 18.2018 119.665 18.2018C111.923 18.2018 104.785 21.5302 100.108 27.0473C95.4528 21.4335 88.174 18 80.3351 18C70.0363 18 60.7264 24.0144 57.072 32.8241C47.3043 35.773 40.4976 43.9572 39.9488 53.4892C31.841 57.9361 26.8877 65.9048 26.8877 74.7219C26.8877 77.3228 27.3188 79.8669 28.1733 82.3122C22.9511 86.962 20 93.3286 20 100.101C20 104.529 21.2656 108.809 23.6811 112.602C21.2692 116.371 19.996 120.695 20 125.101C20 131.195 22.3678 136.957 26.7 141.48C26.6755 141.92 26.6655 142.36 26.6655 142.804C26.6655 156.413 37.7132 168.037 52.1098 169.917C57.7886 177.384 66.9041 181.796 76.8107 181.796C85.7373 181.796 94.2061 178.064 99.9072 171.845C105.607 178.188 114.149 182 123.188 182C133.093 182 142.209 177.588 147.889 170.121C162.286 168.238 173.333 156.615 173.333 143.008C173.333 142.564 173.322 142.122 173.299 141.684C177.631 137.161 179.999 131.399 179.999 125.305C179.999 121.006 178.783 116.852 176.502 113.143ZM76.8107 175.598C68.6708 175.598 61.2142 171.766 56.8642 165.35C56.5835 164.94 56.207 164.598 55.7639 164.348C55.3207 164.098 54.8228 163.948 54.3087 163.91C42.5587 162.999 33.3566 153.729 33.3566 142.803C33.3566 142.081 33.3955 141.367 33.4721 140.66C33.5211 140.203 33.4606 139.742 33.2949 139.31C33.1293 138.878 32.8629 138.488 32.5155 138.167C28.7599 134.668 26.6911 130.03 26.6911 125.1C26.6911 122.459 27.3366 119.9 28.4977 117.526C31.9688 120.639 37.3288 123.331 45.6087 123.331C48.1265 123.331 50.9153 123.081 53.9953 122.52C55.8098 122.188 56.9909 120.56 56.6331 118.882C56.2753 117.199 54.4987 116.104 52.7053 116.439C42.7987 118.247 35.6777 116.556 31.5499 111.423C31.185 110.975 30.698 110.628 30.141 110.421C27.9011 107.348 26.69 103.799 26.69 100.102C26.69 94.4587 29.4277 89.1907 34.2032 85.6479C34.7721 85.2317 35.1779 84.6478 35.3562 83.9887C35.5345 83.3296 35.4752 82.633 35.1877 82.0094C34.1229 79.7125 33.5747 77.2311 33.5777 74.723C33.5777 67.753 37.7299 61.5073 44.4187 58.303C52.4353 56.9279 58.6153 57.8541 62.7697 61.1015C69.2452 66.1603 69.1152 75.4357 69.1108 75.6355C69.0563 77.3438 70.5074 78.7704 72.3519 78.8219L72.4563 78.823C74.2552 78.823 75.7429 77.4973 75.7974 75.8184C75.8152 75.317 76.1018 63.4501 67.1297 56.3991C62.0853 52.4347 55.2831 50.8736 46.9009 51.7041C48.1654 45.2566 53.3875 39.9792 60.4686 38.3665C60.503 38.3591 60.5319 38.3402 60.5653 38.3318C60.7286 38.2887 60.893 38.2466 61.0519 38.1794C65.0708 36.4952 70.8696 41.0788 72.5896 42.8229C72.906 43.1455 73.2896 43.4026 73.7163 43.5779C74.1429 43.7532 74.6034 43.843 75.0685 43.8416C75.8696 43.8416 76.6718 43.5777 77.3118 43.0405C77.6368 42.7712 77.9013 42.4429 78.0897 42.0751C78.2782 41.7073 78.3867 41.3075 78.4088 40.8993C78.431 40.4911 78.3664 40.0828 78.2188 39.6987C78.0712 39.3146 77.8436 38.9624 77.5496 38.6629C77.2496 38.3549 71.8096 32.8609 65.1775 31.7823C68.5008 27.1703 74.1596 24.1984 80.3307 24.1984C87.2718 24.1984 93.5884 27.8915 96.6506 33.6263V66.7238C92.2739 64.7043 87.7273 65.0144 87.4384 65.0365C85.6062 65.1847 84.2562 66.6733 84.404 68.3722C84.5518 70.0711 86.1295 71.3431 87.9984 71.2127C88.2606 71.1949 94.0728 70.8574 96.6506 74.8155V132.688C91.3916 128.432 84.7563 125.999 77.8396 125.792C76.0274 125.702 74.4463 127.074 74.383 128.784C74.3196 130.495 75.7663 131.927 77.6129 131.986C85.1329 132.222 91.9173 135.723 96.155 141.392C94.0374 145.284 92.9319 149.597 92.9306 153.974C92.9306 158.27 94.0006 162.497 96.0284 166.323C91.6173 172.14 84.5762 175.598 76.8107 175.598ZM167.482 138.367C167.135 138.688 166.869 139.079 166.703 139.511C166.538 139.943 166.477 140.405 166.526 140.862C166.602 141.569 166.641 142.283 166.641 143.007C166.641 153.931 157.438 163.201 145.689 164.113C145.175 164.152 144.677 164.302 144.234 164.552C143.791 164.802 143.414 165.144 143.134 165.554C138.781 171.97 131.325 175.802 123.187 175.802C114.877 175.802 107.092 171.675 102.868 165.035C100.746 161.696 99.6249 157.872 99.625 153.975C99.6242 150.03 100.775 146.162 102.952 142.798C107.084 136.408 114.348 132.442 122.382 132.189C124.228 132.13 125.675 130.698 125.611 128.987C125.548 127.277 124.01 125.93 122.155 125.995C115.239 126.208 108.606 128.641 103.346 132.896V74.8102C105.878 70.8869 111.289 71.1949 111.574 71.2117C113.413 71.3378 115.024 70.1026 115.192 68.4037C115.359 66.6996 114.003 65.192 112.162 65.0375C111.883 65.0123 107.573 64.7011 103.346 66.6628V33.6725C103.412 33.5821 103.484 33.5001 103.539 33.4023C106.711 27.8495 112.888 24.3992 119.663 24.3992C125.819 24.3992 131.468 27.3564 134.794 31.9484C128.514 33.2993 123.458 38.3654 123.169 38.6619C122.876 38.9606 122.648 39.3121 122.501 39.6954C122.353 40.0787 122.288 40.4862 122.31 40.8936C122.332 41.3011 122.44 41.7003 122.627 42.0676C122.815 42.4349 123.079 42.7629 123.403 43.0321C124.022 43.5518 124.822 43.838 125.65 43.8363C126.559 43.8363 127.467 43.4957 128.127 42.825C129.624 41.3059 134.225 37.6222 138.044 37.8209C138.455 38.1773 138.96 38.439 139.526 38.5683C146.491 40.1547 151.65 45.2902 153.016 51.6705C144.854 50.9472 138.204 52.5115 133.259 56.3991C124.287 63.449 124.575 75.3159 124.591 75.8174C124.646 77.4963 126.134 78.8219 127.933 78.8219L128.037 78.8209C129.884 78.7683 131.335 77.3386 131.278 75.6281C131.276 75.5356 131.047 66.2665 137.586 61.1267C141.565 57.9981 147.419 57.0183 154.967 58.1516C155.057 58.2031 155.131 58.2736 155.227 58.3177C162.13 61.4663 166.417 67.8297 166.417 74.9248C166.417 77.4479 165.875 79.8995 164.807 82.2113C164.519 82.8349 164.46 83.5314 164.638 84.1905C164.817 84.8496 165.222 85.4336 165.791 85.8497C170.566 89.3926 173.304 94.6605 173.304 100.304C173.304 104.152 172.023 107.853 169.603 111.008C169.401 111.271 169.245 111.563 169.139 111.872C164.883 115.725 158.308 116.879 149.52 115.282C147.719 114.945 145.95 116.044 145.592 117.726C145.235 119.405 146.416 121.033 148.23 121.363C151.312 121.924 154.098 122.175 156.619 122.175C163.379 122.175 168.19 120.374 171.626 118.022C172.697 120.316 173.304 122.77 173.304 125.303C173.308 130.234 171.238 134.872 167.482 138.367Z" fill="#A3E2E3"/>
<path d="M53.9964 137.858C54.3687 137.981 54.7498 138.04 55.1253 138.04C56.4975 138.04 57.7853 137.251 58.2753 135.985C58.522 135.346 64.4719 120.318 79.304 122.804C81.1118 123.097 82.8629 121.99 83.1918 120.304C83.5185 118.619 82.3118 117.008 80.4929 116.703C64.2497 113.992 54.7331 126.76 51.9753 133.895C51.352 135.507 52.2553 137.281 53.9964 137.858Z" fill="#A3E2E3"/>
<path d="M141.579 134.732C142.069 135.997 143.357 136.786 144.729 136.786C145.104 136.786 145.485 136.728 145.858 136.605C147.598 136.027 148.502 134.254 147.879 132.642C145.119 125.508 135.623 112.723 119.362 115.45C117.543 115.755 116.336 117.366 116.663 119.051C116.992 120.737 118.747 121.841 120.55 121.551C135.245 119.076 141.33 134.101 141.579 134.732Z" fill="#A3E2E3"/>
<path d="M65.4552 147.813C58.7764 142.664 51.1053 143.346 50.7698 143.377C48.942 143.557 47.6243 145.065 47.8031 146.759C47.9798 148.456 49.6354 149.68 51.4453 149.545C51.6698 149.525 56.7864 149.141 61.2564 152.642C65.1508 155.691 67.4275 160.814 68.0197 167.866C68.1552 169.49 69.6208 170.725 71.3508 170.725C71.4374 170.725 71.5274 170.723 71.6141 170.715C73.4574 170.583 74.8341 169.092 74.6896 167.385C73.9485 158.551 70.8408 151.967 65.4552 147.813Z" fill="#A3E2E3"/>
<path d="M150.026 142.636C149.701 142.61 142.022 141.924 135.343 147.074C129.958 151.227 126.849 157.812 126.109 166.645C125.966 168.352 127.343 169.843 129.185 169.974C129.271 169.983 129.361 169.985 129.448 169.985C131.178 169.985 132.644 168.75 132.779 167.125C133.371 160.073 135.648 154.951 139.545 151.901C143.999 148.413 149.111 148.782 149.351 148.804C151.184 148.959 152.815 147.737 153.007 146.042C153.198 144.341 151.865 142.816 150.026 142.636Z" fill="#A3E2E3"/>
<path d="M74.5285 96.9965C74.6207 96.741 74.6618 96.4835 74.6807 96.227C80.0574 95.0863 84.8429 92.1175 88.0073 87.7799C89.3233 85.9794 90.3187 83.9871 90.954 81.8822C91.4528 80.2338 90.414 78.5234 88.634 78.0629C86.8518 77.5982 85.0095 78.5644 84.5107 80.2117C84.0679 81.6746 83.3754 83.0591 82.4607 84.3107C79.6051 88.2256 74.8607 90.5637 69.7697 90.5637C61.3308 90.5637 54.4653 84.2055 54.4653 76.3893C54.4653 74.6778 52.9664 73.2901 51.1198 73.2901C49.2731 73.2901 47.7743 74.6767 47.7743 76.3893C47.7743 86.9157 56.4375 95.6014 67.5063 96.6548C63.7719 104.519 56.4653 103.933 55.582 103.827C53.7542 103.597 52.0776 104.764 51.8131 106.451C51.5476 108.144 52.8131 109.717 54.6431 109.963C55.2209 110.041 55.872 110.085 56.5775 110.085C62.0186 110.084 70.7685 107.443 74.5285 96.9965Z" fill="#A3E2E3"/>
<path d="M125.515 96.9965C129.275 107.444 138.025 110.084 143.466 110.084C144.171 110.084 144.822 110.04 145.4 109.962C147.217 109.717 148.467 108.163 148.219 106.478C147.971 104.792 146.298 103.621 144.466 103.824C143.589 103.931 136.274 104.528 132.535 96.6475C143.584 95.5773 152.225 86.901 152.225 76.3882C152.225 74.6767 150.726 73.289 148.879 73.289C147.032 73.289 145.534 74.6757 145.534 76.3882C145.534 84.2045 138.67 90.5626 130.231 90.5626C125.138 90.5626 120.395 88.2256 117.539 84.3086C116.625 83.0589 115.934 81.6756 115.494 80.2138C114.995 78.5633 113.144 77.6003 111.373 78.0608C109.59 78.5202 108.552 80.2285 109.046 81.878C109.679 83.9806 110.673 85.9664 111.995 87.7789C115.165 92.128 119.967 95.0989 125.364 96.2333C125.381 96.4887 125.424 96.7442 125.515 96.9965Z" fill="#A3E2E3"/>
</svg>
