<svg width="200" height="200" viewBox="0 0 200 200" fill="none" xmlns="http://www.w3.org/2000/svg">
<g clip-path="url(#clip0_65_17)">
<path d="M147.786 62.5948C150.632 64.4786 173.817 83.8696 175.935 86.1083C175.715 88.1645 175.102 90.1545 173.775 92.0282L171.058 92.4332C170.893 92.5982 170.664 92.7332 170.574 92.932C169.889 94.4307 169.21 95.9319 168.57 97.4507C168.205 98.3181 168.019 99.2744 167.567 100.088C167.182 100.783 166.524 101.326 166.003 101.948C165.777 102.219 165.478 102.499 165.405 102.821C164.889 105.078 163.367 106.736 162.084 108.544C161.602 109.226 161.102 109.838 160.44 110.372C159.817 110.875 159.335 111.578 158.871 112.248C158.392 112.937 157.962 113.578 157.066 113.845C156.534 114.004 156.049 114.439 155.636 114.844C154.537 115.922 153.434 117.005 152.441 118.178C151.841 118.884 151.403 119.74 150.964 120.567C150.623 121.208 150.219 121.685 149.563 122.078C148.772 122.549 147.962 123.17 147.476 123.929C146.406 125.599 145.354 127.29 144.792 129.247C143.151 134.953 141.992 140.733 141.854 146.685C141.806 148.814 141.743 150.946 141.794 153.074C141.864 155.975 142.374 156.569 145.083 157.294C145.769 157.477 146.448 157.696 147.144 157.832C148.118 158.024 148.927 158.459 149.527 159.251C150.162 160.09 150.366 160.906 150.381 162.705C148.337 163.052 146.272 163.442 144.193 163.731C143.634 163.809 143.014 163.637 142.454 163.472C141.779 163.272 141.154 162.782 140.479 162.721C137.976 162.494 136.791 160.749 135.863 158.791C135.313 157.629 135.03 156.335 134.68 155.085C134.263 153.596 134.001 152.042 132.503 151.386C132.647 149.685 132.845 148.288 132.862 146.889C132.88 145.473 132.745 144.053 132.635 142.636C132.285 138.156 131.926 133.677 131.556 129.198C131.498 128.493 131.522 127.737 131.267 127.099C130.045 124.039 130.783 123.765 126.891 123.772C122.031 123.78 117.16 123.82 112.311 123.534C105.207 123.114 98.18 122.067 91.3588 119.942C90.4789 119.668 89.5189 119.497 88.7914 118.848C88.3539 117.748 88.8014 116.714 89.0264 115.712C90.04 111.204 90.4241 106.578 90.1676 101.966C90.1376 101.383 90.0564 100.804 89.9951 100.196C89.2376 100.257 89.3964 100.803 89.3389 101.156C88.8076 104.423 88.5276 107.749 87.7439 110.953C85.4802 120.203 84.4839 121.423 77.8978 127.223C75.5872 129.269 72.9673 130.937 70.1354 132.164C68.7188 132.767 67.334 133.443 65.9867 134.188C65.0679 134.701 64.1079 135.275 63.4279 136.051C61.703 138.02 60.4042 140.289 59.458 142.73C58.9705 143.986 59.0317 145.306 59.6242 146.533C60.9192 149.211 62.6617 151.607 64.5029 153.927C64.7965 154.306 65.1763 154.608 65.6105 154.809C66.0448 155.011 66.5209 155.105 66.9992 155.085C69.5004 155.022 71.5641 156.199 73.6078 157.409C74.1078 157.705 74.5541 158.12 74.9578 158.544C75.8128 159.442 75.7528 160.52 74.8966 161.376C73.5766 162.695 72.0778 163.435 70.1304 163.285C67.4115 163.079 64.6877 162.947 61.9617 162.889C59.7155 162.839 58.048 161.69 56.9593 159.97C54.2918 155.76 51.2294 151.85 48.2806 147.849C46.8782 145.946 45.6494 143.914 44.3882 141.911C43.9465 141.213 43.5858 140.466 43.3132 139.686C42.762 138.095 43.0132 136.653 44.3457 135.499C45.3307 134.645 46.3032 133.779 47.2931 132.933C48.7469 131.689 49.9819 130.273 50.8906 128.578C51.8406 126.805 52.8706 125.074 53.7881 123.285C55.8805 119.207 55.6868 115.079 53.9356 110.943C53.7006 110.388 53.3956 109.904 52.6856 109.809C51.6831 110.3 51.2881 111.344 50.6906 112.202C48.3156 115.61 45.7069 118.818 42.7395 121.738C35.4458 128.913 26.8097 133.645 16.7273 135.406C11.2973 136.355 7.2799 137.085 0.159987 135.439C-0.0987593 134.98 -0.0262612 134.554 0.248735 134.125C1.33372 132.431 2.36496 130.7 3.50119 129.04C5.30617 126.402 7.71239 124.609 10.9136 123.94C14.1536 123.264 17.3723 122.487 20.6072 121.79C26.3509 120.554 30.8609 117.527 33.8796 112.487C35.8233 109.241 37.587 105.884 39.3607 102.539C40.977 99.4906 42.8657 96.6407 45.1407 94.0457C46.7882 92.167 48.6069 90.4895 50.7631 89.1858C51.7731 88.5758 52.7631 87.902 53.6543 87.1333C58.5018 82.9446 64.1542 80.2884 70.2404 78.5234C76.0553 76.8359 82.0165 75.9897 88.0614 75.4922C93.2688 75.0634 98.48 75.0122 103.685 74.7172C109.717 74.3759 115.751 73.9685 121.763 73.3835C124.817 73.086 127.827 72.3397 130.853 71.7847C131.785 71.6147 132.708 71.406 133.636 71.216C138.173 70.2897 142.098 68.2423 145.336 64.9073C146.069 64.1486 146.867 63.4573 147.786 62.5948ZM175.25 77.1747C172.018 74.9572 154.231 60.0599 152.323 58.0312C152.251 57.3524 152.727 56.9624 153.124 56.5449C155.091 54.4774 157.231 52.6125 159.727 51.2062C161.014 50.48 161.959 49.5413 162.525 48.1388C162.918 47.165 163.518 46.2588 164.124 45.3901C165.888 42.8663 167.627 40.3351 168.762 37.4464C168.888 37.1252 169.138 36.8489 169.344 36.5627C169.587 36.2252 170.229 36.1602 170.642 36.3714C171.665 36.8964 172.185 37.7902 172.527 38.8314C172.742 39.4876 172.829 40.2439 173.718 40.4326C175.114 39.6264 175.348 37.8677 176.63 36.8202C176.854 37.0589 177.244 37.2852 177.248 37.5177C177.27 38.2193 177.197 38.9207 177.03 39.6026C176.61 41.1951 176.104 42.7663 175.662 44.2488C176.152 45.3863 176.935 46.0251 177.789 46.7075C180.003 48.4738 182.091 50.3987 184.188 52.3062C184.508 52.5975 184.664 53.115 184.796 53.5575C185.13 54.6799 185.406 55.8199 185.763 57.1662C186.586 57.5737 187.518 58.0712 188.479 58.5011C191.07 59.6599 193.676 60.7874 196.274 61.9336C197.47 62.4611 198.615 63.0673 199.514 64.0561C200.124 64.7286 200.17 65.5798 199.596 66.3048C198.244 68.0135 196.508 69.276 194.54 70.1085C192.859 70.8197 191.038 70.5397 189.293 70.111C188.26 69.8572 187.256 69.486 186.225 69.2298C185.916 69.1535 185.555 69.286 185.219 69.3223C185.189 70.501 186.114 71.001 186.725 71.6735C188.028 73.1085 188.948 74.7284 189.361 76.6222C189.581 77.5522 189.44 78.5309 188.966 79.3609C188.564 80.0859 187.8 80.3421 187.221 79.8434C186.868 79.5321 186.536 79.1963 186.23 78.8384C185.821 78.3671 185.334 78.0547 184.703 78.0722C183.301 78.1096 182.215 77.4434 181.194 76.5897C180.559 76.0584 179.948 75.4734 179.238 75.0634C178.223 74.4759 177.14 73.9935 176.052 73.5535C175.88 73.4847 175.308 73.8534 175.29 74.0522C175.204 74.9734 175.25 75.9059 175.25 77.1747ZM180.43 57.3712C180.998 57.2812 181.229 57.2549 181.455 57.2062C181.941 57.0999 182.355 56.8362 182.328 56.3149C182.313 56.0274 182.075 55.6637 181.828 55.4912C180.758 54.7499 179.644 54.8287 178.565 55.4962C178.398 55.5999 178.228 55.8412 178.22 56.0249C178.213 56.2249 178.342 56.5449 178.5 56.6174C179.219 56.9424 179.969 57.1974 180.43 57.3712ZM180.543 72.296C180.518 72.2135 180.498 72.0635 180.466 72.061C180.374 72.0535 180.276 72.1047 180.181 72.1335C180.206 72.2147 180.225 72.3597 180.259 72.3635C180.35 72.3722 180.448 72.3222 180.543 72.296Z" fill="#A3E2E3"/>
</g>
<defs>
<clipPath id="clip0_65_17">
<rect width="200" height="200" fill="white"/>
</clipPath>
</defs>
</svg>
