<svg width="200" height="200" viewBox="0 0 200 200" fill="none" xmlns="http://www.w3.org/2000/svg">
<path fill-rule="evenodd" clip-rule="evenodd" d="M183.921 146.298C180.575 151.038 176.179 154.959 171.284 158.046L170.385 158.613L178.783 177.394L172.362 176.682C154.974 174.737 138.702 169.599 122.314 163.742C110.811 160.042 101.346 153.001 95.8857 143.806L102.372 140.247C106.784 147.578 114.796 153.65 124.831 156.796C127.783 157.691 130.708 158.677 133.639 159.635C143.915 162.571 153.843 166.225 164.42 168.067L166.689 168.462L160.835 155.372C167.31 152.01 173.538 148.045 177.871 142.045C185.355 131.378 183.878 117.211 175.195 107.714C170.47 102.561 163.744 98.4235 155.847 96.0689L157.787 88.9342C166.924 91.6313 174.844 96.4148 180.64 102.71C191.453 114.649 193.362 132.91 183.921 146.298Z" fill="#A3E2E3"/>
<path fill-rule="evenodd" clip-rule="evenodd" d="M148.571 78.6391C148.579 58.6176 135.028 41.6171 117.698 32.3525C90.9063 18.0422 54.6459 20.0615 30.6149 39.0488C18.4111 48.7029 9.99371 62.9615 10 78.6394C10.0077 97.4158 22.3285 113.927 37.987 123.253L38.9234 123.811L27.5111 149.331L33.933 148.619C45.9688 147.273 57.8015 144.824 68.4975 142.045C83.7572 138.08 96.7032 133.443 104.624 130.382C104.752 130.333 104.88 130.283 105.01 130.241C117.334 126.291 127.954 119.601 135.667 110.967L136.58 109.92C144.005 101.198 148.571 90.1658 148.571 78.6391ZM17.3938 78.6396C17.4027 61.0687 29.7109 46.6985 44.3545 38.8771C54.2606 33.5808 66.2951 30.4486 79.2856 30.4515C96.6019 30.4451 112.228 36.0252 123.372 44.8483C133.669 52.9986 141.17 65.0439 141.177 78.6393C141.177 100.75 122.11 117.109 102.445 123.308C83.0997 131.211 62.7683 136.824 41.8169 140.087L39.5898 140.434L48.5014 120.505C32.6062 112.141 17.3771 97.9168 17.3938 78.6396Z" fill="#A3E2E3"/>
<path d="M45.0422 80.0335C45.0422 76.4798 47.9229 73.5998 51.4728 73.5998C55.0265 73.5998 57.9068 76.4804 57.9068 80.0335C57.9068 83.5837 55.0269 86.4644 51.4728 86.4644C47.9226 86.4644 45.0422 83.5838 45.0422 80.0335Z" fill="#A3E2E3"/>
<path d="M74.5758 80.0335C74.5758 76.4798 77.4567 73.5998 81.0067 73.5998C84.5601 73.5998 87.4404 76.4804 87.4404 80.0335C87.4404 83.5838 84.5604 86.4644 81.0067 86.4644C77.4562 86.4644 74.5758 83.5838 74.5758 80.0335Z" fill="#A3E2E3"/>
<path d="M104.109 80.0335C104.109 76.4798 106.99 73.5998 110.54 73.5998C114.094 73.5998 116.974 76.4804 116.974 80.0335C116.974 83.5838 114.094 86.4644 110.54 86.4644C106.99 86.4644 104.109 83.5838 104.109 80.0335Z" fill="#A3E2E3"/>
</svg>
